<svg id="Capa_1" enable-background="new 0 0 512 512" height="512" viewBox="0 0 512 512" width="512" xmlns="http://www.w3.org/2000/svg"><g><g><path d="m371.112 367.61c-7.456 0-13.917-5.553-14.865-13.142-1.028-8.22 4.803-15.717 13.023-16.744l15.719-1.965c54.736-6.841 96.011-53.597 96.011-108.759 0-19.299-15.701-35-35-35h-41.019c-8.284 0-15-6.716-15-15s6.716-15 15-15h41.019c35.841 0 65 29.159 65 65 0 70.26-52.573 129.813-122.29 138.527l-15.719 1.965c-.631.079-1.259.118-1.879.118z" fill="#d2d0f2"/></g><g><path d="m186 90c-8.284 0-15-6.716-15-15v-60c0-8.284 6.716-15 15-15s15 6.716 15 15v60c0 8.284-6.716 15-15 15z" fill="#fff5f5"/></g><g><path d="m256 90c-8.284 0-15-6.716-15-15v-60c0-8.284 6.716-15 15-15s15 6.716 15 15v60c0 8.284-6.716 15-15 15z" fill="#fff5f5"/></g><path d="m271 75v-60c0-8.284-6.716-15-15-15v90c8.284 0 15-6.716 15-15z" fill="#dfdef5"/><g><path d="m326 90c-8.284 0-15-6.716-15-15v-60c0-8.284 6.716-15 15-15s15 6.716 15 15v60c0 8.284-6.716 15-15 15z" fill="#dfdef5"/></g><g><path d="m94.325 207c8.177 82.156 31.358 162.908 68.259 236.708 2.54 5.082 7.734 8.292 13.416 8.292h160c5.682 0 10.876-3.21 13.416-8.292 36.901-73.8 60.082-154.552 68.259-236.708l-161.675-40z" fill="#b48e6e"/><path d="m336 452c5.682 0 10.876-3.21 13.416-8.292 36.901-73.8 60.082-154.552 68.259-236.708l-161.675-40v285z" fill="#9d5e4a"/><path d="m421 140.476v-3.476c0-8.284-6.716-15-15-15h-300c-8.284 0-15 6.716-15 15v3.476c0 22.205 1.125 44.415 3.325 66.524h323.349c2.201-22.109 3.326-44.32 3.326-66.524z" fill="#fff5f5"/><path d="m406 122h-150v85h161.675c2.2-22.109 3.325-44.32 3.325-66.524v-3.476c0-8.284-6.716-15-15-15z" fill="#dfdef5"/></g><g><path d="m457 512h-402c-30.376 0-55-24.624-55-55 0-8.284 6.716-15 15-15h482c8.284 0 15 6.716 15 15 0 30.376-24.624 55-55 55z" fill="#fff5f5"/></g><path d="m497 442h-241v70h201c30.376 0 55-24.624 55-55 0-8.284-6.716-15-15-15z" fill="#dfdef5"/></g></svg>